<svg width="156" height="156" viewBox="0 0 156 156" fill="none" xmlns="http://www.w3.org/2000/svg">
<path fill-rule="evenodd" clip-rule="evenodd" d="M31.5331 99.9383C30.2967 100.943 30.3068 102.823 31.5431 103.818L71.2561 135.581C72.8844 136.887 75.2968 135.721 75.2968 133.641V69.6133C75.2968 67.5126 72.8643 66.3567 71.236 67.6834L31.5331 99.9383Z" fill="url(#paint0_linear_33_314)"/>
<path d="M35.9356 87.4143L29.9953 82.66C28.7589 81.6649 28.7489 79.7853 29.9852 78.7802L71.2361 45.2689C72.8644 43.9421 75.2968 45.1081 75.2968 47.1987V56.7677C75.2968 57.5215 74.9551 58.2251 74.3822 58.6975L39.0616 87.3942C38.157 88.138 36.8503 88.138 35.9356 87.4043V87.4143Z" fill="url(#paint1_linear_33_314)"/>
<path d="M27.9348 61.0898L34.3978 66.2562C35.3125 66.9899 36.6091 66.9799 37.5238 66.2461L74.3722 36.3031C74.9551 35.8307 75.2969 35.117 75.2969 34.3732V24.4927C75.2969 22.402 72.8845 21.2461 71.2562 22.5528L27.9348 57.1999C26.6884 58.195 26.6884 60.0947 27.9348 61.0898Z" fill="url(#paint2_linear_33_314)"/>
<path d="M84.5242 134.565L138.269 80.8206C139.244 79.8456 139.244 78.2676 138.269 77.3026L84.5242 23.568C82.9562 22 80.2725 23.1056 80.2725 25.327V132.806C80.2725 135.028 82.9562 136.133 84.5242 134.565Z" fill="url(#paint3_linear_33_314)"/>
<defs>
<linearGradient id="paint0_linear_33_314" x1="40.4989" y1="124.172" x2="84.9763" y2="93.1335" gradientUnits="userSpaceOnUse">
<stop stop-color="#80A8F6"/>
<stop offset="1" stop-color="#3E79E1"/>
</linearGradient>
<linearGradient id="paint1_linear_33_314" x1="34.0058" y1="81.1925" x2="79.1063" y2="49.5106" gradientUnits="userSpaceOnUse">
<stop stop-color="#80A8F6"/>
<stop offset="1" stop-color="#3E79E1"/>
</linearGradient>
<linearGradient id="paint2_linear_33_314" x1="32.1664" y1="62.1552" x2="83.2676" y2="21.3265" gradientUnits="userSpaceOnUse">
<stop stop-color="#80A8F6"/>
<stop offset="1" stop-color="#3E79E1"/>
</linearGradient>
<linearGradient id="paint3_linear_33_314" x1="66.7031" y1="38.0822" x2="128.017" y2="98.8931" gradientUnits="userSpaceOnUse">
<stop stop-color="#80A8F6"/>
<stop offset="1" stop-color="#3E79E1"/>
</linearGradient>
</defs>
</svg>
